<svg version="1.2" xmlns="http://www.w3.org/2000/svg" viewBox="-45 -9 490.0000000000001 424" width="491" height="424">
	<style>
		.s0 { fill: #ffffff } 
	</style>
	<path id="&lt;Compound Path&gt;" class="s0" d="m289.15 143.98c9.3-20.69 43.87-61.51 64.41-76.09 2.02 9.34 4.01 18.52 6 27.7q0.3-0.05 0.6-0.1c2.15-9.79 4.31-19.59 6.52-29.64 4.14 2.59 7.93 4.97 11.72 7.34q0.19-0.25 0.38-0.51c-2.36-3.71-4.73-7.41-7.27-11.39 10.09-2.23 19.67-4.35 29.24-6.47q-0.03-0.34-0.06-0.69c-9.61-2.11-19.22-4.22-29.15-6.39 2.48-3.9 4.78-7.51 7.08-11.12q-0.24-0.24-0.48-0.48c-3.73 2.34-7.46 4.67-11.44 7.18-2.2-9.93-4.36-19.64-6.52-29.35q-0.33 0.01-0.67 0.02c-2.12 9.67-4.23 19.33-6.47 29.53-4.12-2.64-7.83-5.02-11.53-7.4q-0.2 0.28-0.39 0.57c2.25 3.58 4.5 7.16 6.98 11.12-9.92 2.14-19.58 4.22-29.24 6.31q-0.02 0.31-0.03 0.63c8.42 1.92 16.84 3.84 26.31 6-52.66 40.69-96.64 87.54-124.48 148.5 13.85-2.07 27.16-0.51 40.35 3.03 13.23 3.55 25.51 9.24 37.66 16.17 0.09-1.09 0.17-1.63 0.17-2.18-0.01-17.56-0.01-35.12-0.06-52.68-0.02-6.73-2.82-12.2-7.96-16.48-2-1.66-4.12-3.17-6.16-4.74 0.45-0.92 0.79-1.65 1.17-2.35 0.42-0.78 0.88-1.53 1.3-2.25 0.02 0.01 2.02-3.79 2.02-3.79zm74.04-81.52c-0.84 4.61-1.99 9.17-3.59 13.85-1.19-5.14-2.39-10.28-3.72-15.98-1.35 1.12-2.37 1.94-3.37 2.8-20.39 17.46-39.21 36.41-54.52 58.57-12.46 18.06-22.94 37.09-26.83 59.03-1.06 5.95-1.51 12.01-2.24 18.01q0.5 0.09 0.99 0.17c1.73-14.81 6.24-28.8 12.16-42.39 7.1 2.4 12.56 9.04 12.64 16.16 0.17 15.94 0.02 31.9 0 47.85 0 0.18-0.17 0.37-0.41 0.9-20.73-10.98-42.51-18.1-66.83-17.13 14.59-29.56 32.57-56.11 54.33-80.16 21.7-23.99 46.17-44.93 72.14-65.52-6.09-1.4-11.34-2.61-16.58-3.81q0.04-0.33 0.07-0.65c5.24-1.12 10.46-2.33 15.72-3.3 1.91-0.35 2.72-1.23 3.08-3.03 1.03-5.02 2.19-10.02 3.96-15.03 1.09 4.82 2.27 9.61 3.24 14.45 0.44 2.23 1.55 3.29 3.77 3.72 5.01 0.94 9.98 2.1 14.99 3.82-4.89 1.09-9.75 2.31-14.68 3.23-2.67 0.49-3.85 1.83-4.32 4.44z"/>
	<path id="&lt;Compound Path&gt;" class="s0" d="m316.64 80.75c-5.41 5.04-10.93 9.95-16.18 15.15q-19.34 19.11-38.4 38.49c-1.47 1.49-2.56 1.37-4.18 0.82-25.73-8.82-52.26-12.1-79.34-10.84-28.75 1.33-56.3 7.66-82.21 20.49-1.03 0.51-2.03 1.07-3.05 1.58-13.64 6.82-21.16 17.25-19.61 33.07 0.14 1.47 0.02 2.96 0.02 5.01-3.79-1.65-7.23-3.1-10.62-4.65-17.72-8.12-35.42-16.29-53.16-24.38-5.4-2.46-9.99-5.59-9.91-12.24 0.08-6.67 4.79-9.66 10.21-12.04q80.34-35.24 160.65-70.55c12.15-5.34 24.29-5.28 36.39-0.01 20.09 8.74 40.24 17.34 60.15 26.47 11.68 5.36 23.06 5.34 34.61 0.37 4.9-2.12 9.62-4.65 14.43-6.99q0.1 0.13 0.2 0.25zm-21.56 13.51c-11.45 2.59-21.84-0.1-32.17-4.8-19.1-8.69-38.42-16.93-57.65-25.33-11.05-4.83-22.05-4.58-33.05 0.26q-60.34 26.52-120.68 53.02c-13.55 5.95-27.1 11.9-40.62 17.92-2.74 1.22-5.79 2.29-6.58 5.99 11.4 4.6 23.08 7.8 35.02 4.4 11.41-3.25 22.62-7.53 33.49-12.31 21.94-9.65 43.29-20.69 66.24-27.91 21.58-6.8 43.61-10.07 66.25-7.4 16.4 1.93 32.19 6.24 47.35 12.81 3.98 1.72 8.08 2.91 12.37 1.6 11.53-3.5 20.82-10.73 30.03-18.25zm-225.38 83.9c0-1.2 0.02-2.21-0.01-3.21-0.29-11.19 4.26-20.17 13.22-26.58 5.19-3.71 10.85-6.97 16.7-9.51 51.16-22.21 103.47-24.47 156.71-8.37 2.03 0.61 3.24 0.41 4.73-1.18 5.73-6.11 11.64-12.05 17.47-18.07 0.54-0.55 1.01-1.16 2.1-2.44-1.31 0.67-1.72 0.86-2.12 1.08q-0.6 0.33-1.18 0.69c-9.56 5.98-18.91 6.46-29.67 1.87-27.2-11.59-55.56-15.25-84.92-9.69-20.46 3.88-39.64 11.33-58.52 19.78-16.33 7.32-32.55 14.88-49 21.9-11.48 4.9-23.57 6.96-36.04 4.55-5-0.96-9.88-2.57-14.98-3.93 0.71 3.29 3.14 4.77 5.74 5.98q29.06 13.42 58.14 26.77c0.39 0.18 0.85 0.19 1.63 0.36z"/>
	<path id="&lt;Compound Path&gt;" class="s0" d="m189.27 390.04c-30.51-55.25-60.69-109.9-90.97-164.73 13.25-6.07 26.73-10.29 41.13-10.96 1.09-0.05 2.69 1.4 3.34 2.56 13.61 24.31 27.12 48.69 40.66 73.05 1.6 2.88 3.25 5.74 5.11 9.03 4.32-8.29 8.45-16.19 12.55-24.1 10.01-19.34 20.04-38.68 29.96-58.07 1.11-2.17 2.4-2.93 4.81-2.81 13.09 0.65 25.64 3.61 37.76 8.53 0.62 0.25 1.19 0.61 2.25 1.16-28.82 55.36-57.57 110.59-86.6 166.34zm-72.96-167.43c-4.28 1.57-8.23 3.01-12.42 4.54 28.47 51.56 56.73 102.75 85.25 154.4 27.25-52.33 54.21-104.09 81.33-156.16-3.58-1.11-6.59-1.85-9.45-2.98-2.6-1.03-3.78-0.26-5.02 2.14-8.74 17.03-17.62 33.99-26.48 50.96-7.63 14.63-15.14 29.34-22.97 43.86-3.94 7.31-10.1 12.06-18.75 12-8.53-0.06-13.77-5.34-17.68-12.36-12.54-22.53-25.14-45.04-37.72-67.56-5.3-9.5-10.6-19-16.09-28.84zm3.09-1.17c0.76 1.46 1.11 2.16 1.49 2.85q20.35 36.52 40.71 73.04c4.19 7.51 8.18 15.15 12.69 22.47 6.58 10.66 19.08 11.31 27.09 1.64 1.23-1.49 2.26-3.19 3.16-4.91 11.32-21.64 22.6-43.31 33.9-64.96 5.29-10.15 10.59-20.3 16.21-31.07-5.77-0.85-11.19-1.59-16.57-2.49-2.32-0.38-3.41 0.49-4.46 2.55-14.35 27.95-28.81 55.84-43.25 83.75-0.45 0.87-0.97 1.71-1.66 2.91-0.77-1.2-1.35-2-1.83-2.87q-6.72-12.01-13.41-24.04c-11.03-19.84-22.08-39.67-33.05-59.55-1.02-1.85-2-2.75-4.25-2.29-5.37 1.07-10.79 1.93-16.77 2.97z"/>
	<path id="&lt;Compound Path&gt;" class="s0" d="m38.83 334.48c1.27-3.43 2.29-6.3 3.41-9.12 4.05-10.23 8.01-20.49 12.28-30.63 1.14-2.72 0.89-4.3-1.13-6.54-16.38-18.25-25.43-39.34-23.9-64.26 0.97-15.87 6.48-30.12 15.81-42.96 1.13-1.56 2.06-2.02 3.96-1.12q11.02 5.26 22.21 10.15c1.98 0.86 2.33 2.11 2.32 3.99-0.05 13.77-0.02 27.54-0.02 41.3 0 1.22 0 2.43 0 4.05 6.53-4.01 12.62-7.76 19.16-11.78 17.82 32.22 35.44 64.06 53.32 96.4-2 0.26-3.62 0.58-5.25 0.67-16.33 0.82-32.01-2.02-46.95-8.62-2.3-1.02-4.24-1.03-6.53-0.14-14.96 5.83-29.95 11.56-44.94 17.31-1.03 0.39-2.08 0.72-3.75 1.3zm17.1-16.81c3.75-9.63 7.08-18.29 10.53-26.9 0.63-1.59 0.55-2.52-0.75-3.84-3.61-3.68-7.19-7.43-10.35-11.48-20.18-25.93-21.61-58.74-3.92-86.39 0.59-0.92 1.11-1.89 1.76-3.01-1.81-0.84-3.33-1.55-4.71-2.18-0.45 0.27-0.71 0.35-0.82 0.52-12.17 18.01-16.98 37.67-12.98 59.19 3.18 17.09 11.55 31.52 23.5 43.95 1.92 2 2.06 3.56 1.06 5.99-4.15 10.06-8.09 20.21-12.1 30.33-0.43 1.08-0.78 2.2-1.37 3.89 14.54-5.6 28.31-10.98 42.16-16.12 1.69-0.63 3.97-0.45 5.76 0.09 7.68 2.28 15.14 5.43 22.93 7.13 7.4 1.61 15.12 1.8 22.69 2.62q0.14-0.59 0.27-1.19c-1.58-1.87-1.26-5.31-5.12-5.33-14.23-0.06-27.7-3.53-40.5-9.62-2.05-0.97-3.76-0.96-5.83-0.12-6.47 2.65-13.02 5.11-19.54 7.63-3.92 1.51-7.84 3-12.67 4.84zm69.75-22.65c-11.78-21.28-23-41.55-34.43-62.18-7.26 4.86-14.08 9.41-21.24 14.2-0.07-1.4-0.17-2.5-0.17-3.6 0.02-15.59 0.09-31.19 0.01-46.78-0.01-1.22-0.69-3.05-1.63-3.56-3.79-2.05-7.81-3.69-11.91-5.56-7.02 10.14-12.52 20.52-11.49 33.22 0.74 9.13 2.91 17.86 7.03 26.05 12.03 23.92 32.05 37.72 57.26 44.76 5.12 1.42 10.42 2.19 16.57 3.45zm9.4 17.05c-2.58-4.62-4.9-8.94-7.43-13.13-0.4-0.67-1.7-1.02-2.63-1.13-12.75-1.55-24.99-4.85-36.46-10.69-23.21-11.81-38.98-29.74-45.34-55.35q-0.16-0.67-0.41-1.3c-0.12-0.29-0.32-0.54-0.76-1.25 0.78 21.57 9.18 39.12 24 53.78 4.93 4.87 4.95 4.83 2.33 11.43-2.26 5.69-4.5 11.4-7.05 17.87 6.76-2.64 12.9-4.56 18.59-7.38 7.28-3.6 13.78-3.76 21.31-0.02 10.34 5.11 21.76 6.86 33.85 7.17z"/>
	<path id="&lt;Compound Path&gt;" class="s0" d="m340.34 274.03c-3.72 11.58-9.28 22.76-18.19 31.51-5.64 5.53-6 9.95-2.97 16.78 4.87 10.98 8.58 22.47 13.02 34.4-1.48-0.53-2.5-0.85-3.48-1.26-15.32-6.46-30.62-13-46-19.32-1.67-0.69-4.05-0.71-5.76-0.09-17.16 6.22-34.7 8.59-52.83 5.87-0.88-0.13-1.75-0.37-3.06-0.64 20.06-38.53 39.98-76.8 60.29-115.81 7.72 4.5 15.28 8.91 23.1 13.48 0.05-1.09 0.15-2.27 0.15-3.45 0.02-14.12-0.02-28.23 0.12-42.35 0.01-1.26 0.93-2.88 1.94-3.69 1.54-1.24 3.35-1.07 4.88 0.58 5.13 5.51 10.32 10.97 15.5 16.46-6.84 8.37-7.41 16.43-2.5 24.97 0.43 0.76 0.28 1.99 0.11 2.95-1.72 9.7-3.35 19.43-5.35 29.08-0.65 3.14 0.12 4.82 3.06 5.63 5.83 1.61 11.67 3.18 17.97 4.9zm-57.1-43.45c-14.3 27.49-28.08 53.99-41.89 80.55 0.52 0.15 0.74 0.29 0.94 0.27 22.83-2.56 42.63-11.15 58.13-28.66 12.28-13.87 17.97-30.4 20.2-48.39 0.12-1.02-0.54-2.13-0.79-3.21-0.87-3.87-2.14-7.71-2.48-11.63-0.53-6.11-4.88-9.46-7.97-13.76q-0.5 0.19-1 0.39c0 13.54 0 27.08 0 40.7-8.45-5.46-16.59-10.73-25.14-16.26zm-51.51 99.07c2.07 0.2 3.62 0.46 5.18 0.48 12.31 0.21 24.36-1.73 35.67-6.44 5.66-2.36 10.2-2.12 15.49 0.53 6.9 3.45 14.17 6.16 21.82 9.42-2.94-7.82-5.56-15.01-8.37-22.13-0.8-2.03-0.54-3.27 1.19-4.69 6.87-5.65 12.82-12.18 17.41-19.83 2.28-3.78 4.2-7.77 6.24-11.59-4.07-3.07-9.71-2.53-11.68-6.61-4.68 6.08-9.19 13.07-14.81 19.02-15.42 16.33-34.96 24.33-57.09 26.58-1.27 0.13-3.14 0.36-3.63 1.2-2.59 4.41-4.82 9.04-7.42 14.06zm83.54 9.63c-11.24-4.78-21.48-9.07-31.64-13.54-2.38-1.06-4.37-1.19-6.84-0.21-13.69 5.43-27.83 8.49-42.67 7.51-4.7-0.31-5.33 0.27-6.25 5.34 16.89 1.82 33.19-0.51 48.95-6.69 2.33-0.91 4.27-0.77 6.54 0.21 13.15 5.69 26.37 11.24 39.57 16.82 0.64 0.27 1.35 0.36 2.31 0.61-4.47-11.87-8.73-23.36-13.15-34.79-0.82-2.12-0.74-3.5 1.02-5.09 2.54-2.31 4.9-4.85 7.1-7.48 6.28-7.51 11.32-15.77 14.94-25.16-1.18-0.23-2.05-0.43-2.92-0.58-0.89-0.16-1.78-0.27-2.72-0.41-0.34 0.61-0.65 1.08-0.87 1.6-5.2 11.98-12.69 22.29-22.68 30.72-1.59 1.33-1.49 2.42-0.84 4.11 3.32 8.64 6.52 17.33 10.15 27.03zm6.54-132.69c-4.06-4.39-8.21-8.89-12.36-13.39q-0.56 0.33-1.12 0.67c0.26 2.32-0.23 5.13 0.91 6.86 2.71 4.11 6.2 7.71 9.39 11.53 1-1.79 1.94-3.47 3.18-5.67z"/>
	<path id="&lt;Compound Path&gt;" class="s0" d="m255.81 140.75c-28.16 35.29-48.31 74.58-66.61 115.78-2.2-4.92-3.95-9.13-5.93-13.22-2.64-5.47-5.13-11.04-8.24-16.23-8.57-14.3-21.67-19.87-37.93-18.48-18.48 1.59-35.53 7.75-51.64 16.73-1.69 0.94-3.4 1.85-5.45 2.97-0.12-1.1-0.3-1.93-0.3-2.76q-0.05-25.98-0.03-51.97c0.01-7.42 3.04-13.6 9.24-17.49 6.37-4 13.07-7.71 20.04-10.51 46.74-18.79 94.31-20.69 142.56-6.29 1.19 0.35 2.36 0.8 4.29 1.47zm-66.46 105.75c16.64-36.79 35.18-71.96 59.94-103.83-1.79-0.55-2.87-0.92-3.97-1.22-34.09-9.32-68.4-10.15-102.87-2.38-16.62 3.75-32.63 9.26-47.52 17.73-7.61 4.32-11.71 10.48-11.54 19.57 0.26 14.1 0.05 28.22 0.05 42.32 0 0.85 0.12 1.69 0.22 2.84 1.77-0.88 3.2-1.56 4.6-2.29 13.53-7.09 27.85-11.74 42.95-14.07 23.36-3.62 39.38 4.32 50.29 25.2 2.65 5.07 5.02 10.29 7.85 16.13z"/>
	<path id="&lt;Path&gt;" class="s0" d="m377.8 29.8c-0.26-4.23-2.64-5.79-6.28-6.42 3.57-0.81 6.27-2.17 6.12-6.7 0.76 3.98 2.66 6.11 6.54 6.62-3.61 0.82-6.12 2.4-6.38 6.5z"/>
	<path id="&lt;Path&gt;" class="s0" d="m349.34 102.05c-1.24 0.81-2.58 2.37-3.7 2.22-1.22-0.16-2.91-1.76-3.18-2.99-0.44-2.04 1.14-3.62 3.25-3.24 1.33 0.24 2.44 1.65 3.66 2.54q-0.02 0.74-0.03 1.47z"/>
	<path id="&lt;Path&gt;" class="s0" d="m396.22 44.34c-1.69 1-2.74 2.11-3.54 1.95-0.87-0.17-2.1-1.57-2.05-2.36 0.05-0.8 1.46-2.07 2.32-2.1 0.83-0.03 1.71 1.24 3.27 2.51z"/>
	<path id="&lt;Path&gt;" class="s0" d="m395.41 9.57c0.19 0.18 0.89 0.85 1.69 1.61-0.61 0.64-1.39 1.47-2.25 2.37-0.7-0.81-1.46-1.68-1.64-1.88 0.72-0.69 1.42-1.36 2.2-2.1z"/>
	<path id="&lt;Path&gt;" class="s0" d="m296.14 70.43c0.81 1.44 1.7 2.31 1.57 2.97-0.14 0.67-1.25 1.42-2.02 1.55-0.4 0.07-1.46-1.17-1.42-1.77 0.05-0.75 0.92-1.44 1.87-2.75z"/>
	<path id="&lt;Path&gt;" class="s0" d="m269.91 198.91c1.73-14.81 6.24-28.8 12.16-42.39 7.1 2.4 12.56 9.04 12.64 16.16 0.17 15.94 0.02 31.9 0 47.85 0 0.18-0.17 0.37-0.41 0.9-20.73-10.98-42.51-18.1-66.83-17.13 14.59-29.56 32.57-56.11 54.33-80.16 21.7-23.99 46.17-44.93 72.14-65.52-6.09-1.4-11.34-2.61-16.58-3.81q0.04-0.33 0.07-0.65c5.24-1.12 10.46-2.33 15.72-3.3 1.91-0.35 2.72-1.23 3.08-3.03 1.03-5.02 2.19-10.02 3.96-15.03 1.09 4.82 2.27 9.61 3.24 14.45 0.44 2.23 1.55 3.29 3.77 3.72 5.01 0.94 9.98 2.1 14.99 3.82-4.89 1.09-9.75 2.31-14.68 3.23-2.67 0.49-3.85 1.83-4.32 4.44-0.84 4.61-1.99 9.17-3.59 13.85-1.19-5.14-2.39-10.28-3.72-15.98-1.35 1.12-2.37 1.94-3.37 2.8-20.39 17.46-39.21 36.41-54.52 58.57-12.46 18.06-22.94 37.09-26.83 59.03-1.06 5.95-1.51 12.01-2.24 18.01q0.5 0.09 0.99 0.17z"/>
	<path id="&lt;Path&gt;" class="s0" d="m325.84 142.13c-3.69-1.92-7.66-4.06-9.6-8.72-2.42-5.84 0.02-11.65 0.79-13.31q4.68-8.35 9.36-16.7 0.6 0.26 1.2 0.51c-0.99 1.39-2.13 3.44-2.66 6.1-0.36 1.77-0.84 4.03 0.23 6.07 0.76 1.45 2.28 2.5 4.8 3.62 10.69 4.72 21.41 9.39 32.1 14.11 3.18 1.41 5.36 2.65 6.14 3.05 2.62 1.36 4.85 2.6 6.6 3.6-2.85 1.28-7.4 3.1-13.22 4.41-6 1.35-21.51 4.65-35.74-2.74z"/>
	<path id="&lt;Path&gt;" class="s0" d="m327.59 103.91c-0.09 0.73-0.2 1.77-0.26 3.03-0.09 1.82-0.21 4.39 0.23 6.07 0.81 3.06 3.94 4.78 5.92 5.81 11.38 5.93 22.07 8.36 31.82 14.1 2.02 1.2 5.25 3.26 8.91 6.47-3.96 1.64-8.79 3.19-14.39 4.11-5.02 0.82-19.35 2.97-32.95-4.28-3.9-2.08-8.06-4.37-9.31-8.78-0.29-1-0.88-3.72 2.89-12.79 1.46-3.51 3.72-8.3 7.14-13.74z"/>
	<path id="&lt;Path&gt;" class="s0" d="m295.08 94.26c-9.21 7.52-18.5 14.75-30.03 18.25-4.29 1.31-8.39 0.12-12.37-1.6-15.16-6.57-30.95-10.88-47.35-12.81-22.64-2.67-44.67 0.6-66.25 7.4-22.95 7.22-44.3 18.26-66.24 27.91-10.87 4.78-22.08 9.06-33.49 12.31-11.94 3.4-23.62 0.2-35.02-4.4 0.79-3.7 3.84-4.77 6.58-5.99 13.52-6.02 27.07-11.97 40.62-17.92q60.34-26.5 120.68-53.02c11-4.84 22-5.09 33.05-0.26 19.23 8.4 38.55 16.64 57.65 25.33 10.33 4.7 20.72 7.39 32.17 4.8z"/>
	<path id="&lt;Path&gt;" class="s0" d="m69.7 178.16c-0.78-0.16-1.24-0.18-1.63-0.36q-29.08-13.35-58.14-26.77c-2.6-1.21-5.03-2.69-5.74-5.98 5.1 1.36 9.98 2.97 14.98 3.93 12.47 2.41 24.56 0.35 36.04-4.55 16.45-7.02 32.67-14.58 49-21.9 18.88-8.45 38.06-15.9 58.52-19.78 29.36-5.56 57.72-1.9 84.92 9.69 10.76 4.59 20.11 4.11 29.67-1.87q0.58-0.36 1.18-0.69c0.4-0.22 0.81-0.41 2.12-1.08-1.09 1.28-1.56 1.89-2.1 2.44-5.83 6.02-11.74 11.96-17.47 18.07-1.49 1.59-2.7 1.79-4.73 1.18-53.24-16.1-105.55-13.84-156.71 8.37-5.85 2.54-11.51 5.8-16.7 9.51-8.96 6.41-13.51 15.39-13.22 26.58 0.03 1 0.01 2.01 0.01 3.21z"/>
	<path id="&lt;Path&gt;" class="s0" d="m116.31 222.61c5.49 9.84 10.79 19.34 16.09 28.84 12.58 22.52 25.18 45.03 37.72 67.56 3.91 7.02 9.15 12.3 17.68 12.36 8.65 0.06 14.81-4.69 18.75-12 7.83-14.52 15.34-29.23 22.97-43.86 8.86-16.97 17.74-33.93 26.48-50.96 1.24-2.4 2.42-3.17 5.02-2.14 2.86 1.13 5.87 1.87 9.45 2.98-27.12 52.07-54.08 103.83-81.33 156.16-28.52-51.65-56.78-102.84-85.25-154.4 4.19-1.53 8.14-2.97 12.42-4.54z"/>
	<path id="&lt;Path&gt;" class="s0" d="m119.4 221.44c5.98-1.04 11.4-1.9 16.77-2.97 2.25-0.46 3.23 0.44 4.25 2.29 10.97 19.88 22.02 39.71 33.05 59.55q6.69 12.03 13.41 24.04c0.48 0.87 1.06 1.67 1.83 2.87 0.69-1.2 1.21-2.04 1.66-2.91 14.44-27.91 28.9-55.8 43.25-83.75 1.05-2.06 2.14-2.93 4.46-2.55 5.38 0.9 10.8 1.64 16.57 2.49-5.62 10.77-10.92 20.92-16.21 31.07-11.3 21.65-22.58 43.32-33.9 64.96-0.9 1.72-1.93 3.42-3.16 4.91-8.01 9.67-20.51 9.02-27.09-1.64-4.51-7.32-8.5-14.96-12.69-22.47q-20.36-36.52-40.71-73.04c-0.38-0.69-0.73-1.39-1.49-2.85z"/>
	<path id="&lt;Path&gt;" class="s0" d="m125.68 295.02c-6.15-1.26-11.45-2.03-16.57-3.45-25.21-7.04-45.23-20.84-57.26-44.76-4.12-8.19-6.29-16.92-7.03-26.05-1.03-12.7 4.47-23.08 11.49-33.22 4.1 1.87 8.12 3.51 11.91 5.56 0.94 0.51 1.62 2.34 1.63 3.56 0.08 15.59 0.01 31.19-0.01 46.78 0 1.1 0.1 2.2 0.17 3.6 7.16-4.79 13.98-9.34 21.24-14.2 11.43 20.63 22.65 40.9 34.43 62.18z"/>
	<path id="&lt;Path&gt;" class="s0" d="m55.93 317.67c4.83-1.84 8.75-3.33 12.67-4.84 6.52-2.52 13.07-4.98 19.54-7.63 2.07-0.84 3.78-0.85 5.83 0.12 12.8 6.09 26.27 9.56 40.5 9.62 3.86 0.02 3.54 3.46 5.12 5.33q-0.13 0.6-0.27 1.19c-7.57-0.82-15.29-1.01-22.69-2.62-7.79-1.7-15.25-4.85-22.93-7.13-1.79-0.54-4.07-0.72-5.76-0.09-13.85 5.14-27.62 10.52-42.16 16.12 0.59-1.69 0.94-2.81 1.37-3.89 4.01-10.12 7.95-20.27 12.1-30.33 1-2.43 0.86-3.99-1.06-5.99-11.95-12.43-20.32-26.86-23.5-43.95-4-21.52 0.81-41.18 12.98-59.19 0.11-0.17 0.37-0.25 0.82-0.52 1.38 0.63 2.9 1.34 4.71 2.18-0.65 1.12-1.17 2.09-1.76 3.01-17.69 27.65-16.26 60.46 3.92 86.39 3.16 4.05 6.74 7.8 10.35 11.48 1.3 1.32 1.38 2.25 0.75 3.84-3.45 8.61-6.78 17.27-10.53 26.9z"/>
	<path id="&lt;Path&gt;" class="s0" d="m135.08 312.07c-12.09-0.31-23.51-2.06-33.85-7.17-7.53-3.74-14.03-3.58-21.31 0.02-5.69 2.82-11.83 4.74-18.59 7.38 2.55-6.47 4.79-12.18 7.05-17.87 2.62-6.6 2.6-6.56-2.33-11.43-14.82-14.66-23.22-32.21-24-53.78 0.44 0.71 0.64 0.96 0.76 1.25q0.25 0.63 0.41 1.3c6.36 25.61 22.13 43.54 45.34 55.35 11.47 5.84 23.71 9.14 36.46 10.69 0.93 0.11 2.23 0.46 2.63 1.13 2.53 4.19 4.85 8.51 7.43 13.13z"/>
	<path id="&lt;Path&gt;" class="s0" d="m283.24 230.58c8.55 5.53 16.69 10.8 25.14 16.26 0-13.62 0-27.16 0-40.7q0.5-0.2 1-0.39c3.09 4.3 7.44 7.65 7.97 13.76 0.34 3.92 1.61 7.76 2.48 11.63 0.25 1.08 0.91 2.19 0.79 3.21-2.24 17.99-7.92 34.52-20.2 48.39-15.5 17.51-35.3 26.1-58.13 28.66-0.2 0.02-0.42-0.12-0.94-0.27 13.81-26.56 27.59-53.06 41.89-80.55z"/>
	<path id="&lt;Path&gt;" class="s0" d="m231.73 329.65c2.6-5.02 4.83-9.65 7.42-14.06 0.49-0.84 2.36-1.07 3.63-1.2 22.13-2.25 41.67-10.25 57.09-26.58 5.62-5.95 10.13-12.94 14.81-19.02 1.97 4.08 7.61 3.54 11.68 6.61-2.04 3.82-3.96 7.81-6.24 11.59-4.59 7.65-10.54 14.18-17.41 19.83-1.73 1.42-1.99 2.66-1.19 4.69 2.81 7.12 5.43 14.31 8.37 22.13-7.65-3.26-14.92-5.97-21.82-9.42-5.29-2.65-9.83-2.89-15.49-0.53-11.31 4.71-23.36 6.65-35.67 6.44-1.56-0.02-3.11-0.28-5.18-0.48z"/>
	<path id="&lt;Path&gt;" class="s0" d="m315.27 339.28c-3.63-9.7-6.83-18.39-10.15-27.03-0.65-1.69-0.75-2.78 0.84-4.11 9.99-8.43 17.48-18.74 22.68-30.72 0.22-0.52 0.53-0.99 0.87-1.6 0.94 0.14 1.83 0.25 2.72 0.41 0.87 0.15 1.74 0.35 2.92 0.58-3.62 9.39-8.66 17.65-14.94 25.16-2.2 2.63-4.56 5.17-7.1 7.48-1.76 1.59-1.84 2.97-1.02 5.09 4.42 11.43 8.68 22.92 13.15 34.79-0.96-0.25-1.67-0.34-2.31-0.61-13.2-5.58-26.42-11.13-39.57-16.82-2.27-0.98-4.21-1.12-6.54-0.21-15.76 6.18-32.06 8.51-48.95 6.69 0.92-5.07 1.55-5.65 6.25-5.34 14.84 0.98 28.98-2.08 42.67-7.51 2.47-0.98 4.46-0.85 6.84 0.21 10.16 4.47 20.4 8.76 31.64 13.54z"/>
	<path id="&lt;Path&gt;" class="s0" d="m321.81 206.59c-1.24 2.2-2.18 3.88-3.18 5.67-3.19-3.82-6.68-7.42-9.39-11.53-1.14-1.73-0.65-4.54-0.91-6.86q0.56-0.34 1.12-0.67c4.15 4.5 8.3 9 12.36 13.39z"/>
	<path id="&lt;Path&gt;" class="s0" d="m189.35 246.5c-2.83-5.84-5.2-11.06-7.85-16.13-10.91-20.88-26.93-28.82-50.29-25.2-15.1 2.33-29.42 6.98-42.95 14.07-1.4 0.73-2.83 1.41-4.6 2.29-0.1-1.15-0.22-1.99-0.22-2.84 0-14.1 0.21-28.22-0.05-42.32-0.17-9.09 3.93-15.25 11.54-19.57 14.89-8.47 30.9-13.98 47.52-17.73 34.47-7.77 68.78-6.94 102.87 2.38 1.1 0.3 2.18 0.67 3.97 1.22-24.76 31.87-43.3 67.04-59.94 103.83z"/>
	<path id="&lt;Path&gt;" class="s0" d="m337.31 207.4c-0.05 0.78-0.08 1.16-0.22 1.61-0.04 0.13-0.41 1.3-1.29 2.03-0.21 0.18-0.7 0.53-1.18 0.85q-0.15 0.1-0.18 0.12c-1.62 1.04-2.69 2.66-2.69 2.66-1.24 1.89-1.42 3.77-1.45 4.45-0.02 0.42-0.06 1.66 0.4 3.15 0.31 1.03 0.74 1.77 0.89 2.03 0.23 0.38 0.29 0.42 0.85 1.23 0.74 1.06 1.12 1.59 1.3 1.98 0.57 1.2 0.63 2.27 0.64 2.54 0.01 0.51-0.03 1.02-0.06 1.3-0.06 0.64-0.16 1.12-0.19 1.29-0.25 1.29-0.45 2.58-0.73 3.85-0.3 1.39-1.41 7.3-4.44 24.11 0.59 0.2 1.41 0.47 2.4 0.74 1.78 0.5 5.4 1.47 10.12 1.44 4.25-0.02 7.84-0.85 10.48-1.72-0.12-0.64-0.37-1.94-0.49-2.58q-2.25-11.87-4.42-23.7-0.14-0.4-0.33-1.08c-0.19-0.75-0.44-1.78-0.41-3.05 0.01-0.54 0.03-1.34 0.36-2.31 0 0 0.42-1.22 1.45-2.54 0.11-0.14 0.23-0.28 0.23-0.28q0.43-0.5 0.72-0.79c0.42-0.62 1-1.66 1.31-3.05 0.57-2.66-0.26-4.77-0.51-5.37-0.08-0.19-0.74-1.76-2.07-3.09-0.58-0.59-1.3-1.15-1.3-1.15-0.81-0.63-0.92-0.57-1.4-0.99-0.32-0.29-1-0.97-1.41-2.01-0.26-0.66-0.37-1.17-0.36-1.9q0.02-1.58 0.04-3.16c0.01-0.72 0-1.11-0.01-1.6-0.05-5.16 0.13-13.66 0.13-13.77 0.08-2.31 0.01-4.01 0-4.45-0.12-3.6 0.29-9.31-0.07-18.12-0.04-0.83-0.07-1.49-0.08-1.84-0.03-0.57 0.07-1.03 0.15-1.33 0.13-0.5 0.33-0.85 0.43-1.03q0.3-0.53 0.57-0.83-3.72 1.65-7.44 3.3 0.12 1.89 0.23 3.78c0.01 0.59 0.01 1.34 0.01 2 0.02 13.82-0.1 18.93-0.03 28.8 0.01 1.56 0.04 4.01 0.08 7.05q0.02 0.54-0.03 1.43z"/>
	<path id="&lt;Path&gt;" class="s0" d="m335.81 207.59c-0.06 0.78-0.08 1.17-0.22 1.62-0.04 0.12-0.41 1.3-1.29 2.03-0.22 0.18-0.7 0.53-1.18 0.85q-0.16 0.1-0.18 0.11c-1.62 1.04-2.69 2.67-2.69 2.67-1.24 1.89-1.42 3.77-1.45 4.45-0.02 0.42-0.06 1.66 0.4 3.15 0.31 1.03 0.74 1.77 0.89 2.03 0.23 0.38 0.29 0.42 0.85 1.22 0.74 1.07 1.11 1.6 1.3 1.98 0.57 1.21 0.62 2.28 0.63 2.55 0.02 0.51-0.02 1.02-0.05 1.3-0.06 0.64-0.16 1.12-0.19 1.29-0.25 1.28-0.45 2.57-0.73 3.85-0.31 1.39-1.42 7.3-4.44 24.1 0.59 0.21 1.41 0.48 2.4 0.75 4.86 1.35 8.8 1.43 10.12 1.44 4.25 0.02 7.82-0.69 10.43-1.43q-0.21-1.43-0.44-2.87-1.93-12.17-4.42-23.71-0.14-0.39-0.33-1.08c-0.19-0.75-0.45-1.77-0.41-3.04 0.01-0.54 0.03-1.34 0.36-2.31 0 0 0.42-1.22 1.45-2.54 0.11-0.14 0.23-0.28 0.23-0.28q0.43-0.51 0.72-0.79c0.42-0.63 1-1.66 1.3-3.06 0.58-2.65-0.26-4.76-0.5-5.36-0.08-0.19-0.74-1.77-2.07-3.1-0.58-0.58-1.3-1.14-1.3-1.14-0.81-0.63-0.92-0.57-1.4-1-0.32-0.28-1-0.97-1.41-2.01-0.26-0.65-0.37-1.16-0.36-1.89q0.02-1.58 0.04-3.17c0-0.71-0.01-1.1-0.01-1.59-0.05-5.2 0.13-13.78 0.13-13.78 0.08-3.75 0.22-10.35-0.07-22.57 0.01-0.62-0.1-1.2-0.09-1.83-0.04-0.26-0.09-0.75 0.1-1.32 0.24-0.75 0.74-1.19 0.94-1.35q-3.64 1.62-7.28 3.25c0.08 0.83 0.16 1.96 0.19 3.3 0.03 1.01 0.01 1.76 0.01 2 0.02 13.83-0.1 18.94-0.03 28.8 0.01 1.56 0.03 4.02 0.08 7.06q0.02 0.53-0.03 1.42z"/>
	<path id="&lt;Compound Path&gt;" class="s0" d="m368.61 131.03c-11.08-5-22.25-9.81-33.38-14.71-5.69-2.51-5.9-2.99-4.23-9.05q0.33-1.16 0.73-2.3c3.04-9.04 8.44-16.75 13.87-24.45q0.99-1.41 1.98-2.82c-13.59 11.32-25.66 23.92-34.88 38.87-3.51 5.69-6.18 12.04-8.25 18.41-1.52 4.68-1.44 9.88-2.08 14.85q0.64 0.11 1.27 0.21c0.68-10.49 4.09-20.01 9.84-29.58-1.33 15.68 3.23 22.15 17.9 26.54 8.08 2.41 16.33 2.75 24.56 1.52 5.83-0.87 11.53-2.59 17.48-3.98-0.81 3.11-3.29 4.51-5.85 5.71-7.17 3.36-14.35 6.68-21.59 9.88-1.94 0.86-2.66 1.91-2.64 4.1q0.15 21.35 0.01 42.69c-0.01 2.16 0.5 3.47 2.45 4.7 4.9 3.08 6.38 9.65 2.72 13.72-2.47 2.75-2.67 5.22-1.8 8.36 0.52 1.87 0.77 3.81 1.13 5.73 1.37 7.17 2.73 14.34 4.11 21.63-7.95 2.58-15.39 2.13-23-0.46 1.73-9.41 3.37-18.53 5.11-27.64 0.51-2.64 0.62-4.81-1.44-7.21-3.87-4.52-2.77-10.89 2.26-14.04 0.92-0.57 1.52-1.18 1.89-1.86 0.41-0.73 0.53-1.64 0.55-1.84 0.1-0.68 0.07-1.2 0.06-1.33-0.14-2.62-0.06-16.78-0.11-38.56 0-1.08-0.12-2.16-0.23-3.78-9.83 4.5-19.2 8.79-29.09 13.32 0.33-3.37 0.45-9.3-2.12-15.92-4.5-11.54-13.97-16.92-16.78-18.38q-1.03 1.96-2.05 3.91c2.84 1.41 8.71 4.8 12.98 11.67 6.91 11.1 4.27 22.72 3.68 25.07 10.51-4.82 19.93-9.15 29.83-13.7 0 12.43 0.04 24.22-0.08 36.01-0.01 0.88-1.05 1.92-1.85 2.59-5.83 4.9-6.86 12.47-2.8 18.88 0.91 1.43 1.31 3.6 1.04 5.29-1.5 9.28-3.34 18.5-4.88 27.77-0.16 0.96 0.62 2.79 1.4 3.09 9.2 3.6 18.53 3.93 27.94 0.62 1.96-0.69 2.2-1.73 1.81-3.64q-2.85-14.16-5.32-28.4c-0.24-1.35 0.18-3.14 0.95-4.28 4.27-6.31 3.58-14.09-2.19-18.92-1.73-1.45-2.18-2.91-2.16-4.98 0.06-12.4 0.11-24.79-0.04-37.19-0.03-2.49 0.85-3.63 3.01-4.59 7.03-3.11 14.05-6.27 20.91-9.72 7.06-3.55 8.8-12.11 3.59-17.65-1.66-1.78-3.96-3.14-6.22-4.16zm-42.69 10.46c-9.66-4.57-12.4-11.65-8.29-21.54 2.39-5.74 5.81-11.05 8.76-16.55q0.6 0.26 1.2 0.51c-0.41 1.77-0.87 3.52-1.21 5.3-1.05 5.46-0.04 7.45 5.03 9.69 10.69 4.73 21.41 9.4 32.1 14.12 2.1 0.92 4.26 1.79 6.15 3.05 1.51 1.01 2.65 2.56 4.41 4.32-16.53 6.45-32.32 8.58-48.15 1.1z"/>
	<path id="&lt;Path&gt;" class="s0" d="m250.74 205.83c-1.72-0.32-3.13-0.53-4.02-0.64-2.06-0.28-5.36-0.64-16.25-0.84-1.3-0.02-2.36-0.04-3-0.05 9.1-18.6 21.37-39.83 37.99-61.75 30.17-39.8 63.12-66.66 88.48-83.93-23.22 17.44-56.64 47.68-81.69 94.64-10.06 18.85-16.85 36.8-21.51 52.57z"/>
	<path id="&lt;Path&gt;" class="s0" d="m180.71 133.97q4.32 56.33 8.64 112.66c1.99-4.48 4.77-10.62 8.24-17.85 5.71-11.89 13.48-27.99 24.94-46.9 6.49-10.72 15.29-24.21 26.76-39.21-3.7-1.21-9.2-2.87-15.98-4.46-6.93-1.62-19.06-4.39-34.95-4.8-4.41-0.11-10.45-0.08-17.65 0.56z"/>
	<path id="&lt;Path&gt;" class="s0" d="m314.97 118.82c-0.84-0.33-4.72 6.37-8.13 14.69-3.18 7.78-4.96 14.6-6.01 19.54q1.93 3.04 3.86 6.09c0.97 2.12 2.01 4.93 2.68 8.33 0.8 4.07 0.79 7.59 0.59 10.19 3.81-1.69 9.37-4.14 16.09-7.13 11.64-5.17 17.55-7.79 21.7-9.7 5.99-2.76 14.45-6.78 24.65-12.01 0.62-0.45 1.58-1.25 2.31-2.55 0.36-0.63 0.58-1.23 0.71-1.73-0.68 0.17-1.78 0.43-3.13 0.76-4.82 1.17-7.72 1.9-8.57 2.11-9.83 2.4-19.23 1.64-19.23 1.64-1.88-0.15-5.68-0.56-10.28-1.81-3.47-0.95-5.7-1.92-6.19-2.14-2.22-0.97-4.4-1.93-6.25-3.46-4.69-3.9-5.52-9.95-5.74-11.5-0.91-6.53 1.63-11.04 0.94-11.32z"/>
	<path id="&lt;Path&gt;" class="s0" d="m285.19 157.73c2.25 1.1 6.32 3.51 8.24 7.7 1.08 2.36 1.78 5.92 1.86 6.36 0 0 0.33 1.73 0.49 3.53 0.67 7.58-0.88 27.27-0.8 42.4 0.01 1.03 0.02 2.88 0.1 5.23q-9.2-4.82-18.39-9.64c-0.23-1.05-0.52-2.57-0.79-4.41-0.36-2.55-1.4-10.98 1.18-24.87 1.23-6.65 3.53-15.81 8.11-26.3z"/>
	<path id="&lt;Path&gt;" class="s0" d="m285.19 157.73c-3.43 8.79-5.57 16.49-6.94 22.42-3.15 13.68-2.92 20.93-2.83 22.82 0.18 4.29 0.76 7.84 1.27 10.34q-3.76-1.41-7.52-2.82c0.04-1.39 0.12-3.49 0.3-6.04 0.54-7.96 1.5-20.72 6.83-35.14 1.18-3.21 3.02-7.66 5.77-12.79q1.56 0.61 3.12 1.21z"/>
	<g id="Layer 1">
	</g>
</svg>