<svg version="1.2" xmlns="http://www.w3.org/2000/svg" viewBox="0 0 512 474.00000000000006" width="512" height="475">
	<defs>
		<linearGradient id="g1" x2="1" gradientUnits="userSpaceOnUse" gradientTransform="matrix(129.476,304.611,-93.372,37.396,160.824,-34.919)">
			<stop offset="0" stop-color="#00b1bb"/>
			<stop offset=".466" stop-color="#02a5b0"/>
			<stop offset=".766" stop-color="#088291"/>
		</linearGradient>
	</defs>
	<style>
		.s0 { fill: #554f4f } 
		.s1 { fill: #050505 } 
		.s2 { fill: #d5b568 } 
		.s3 { fill: #8cd1d3 } 
		.s4 { fill: #01abb7 } 
		.s5 { fill: url(#g1) } 
		.s6 { fill: #088291 } 
		.s7 { fill: #00b1bb } 
		.s8 { fill: #07818c } 
		.s9 { fill: #03adba } 
		.s10 { fill: #a47b1c } 
		.s11 { fill: #06808e } 
	</style>
	<path id="&lt;Path&gt;" class="s0" d="m256.24 216.77q-0.39 25.74-0.78 51.49"/>
	<path id="&lt;Compound Path&gt;" class="s1" d="m359.45 179.27c10.86-23.44 51.2-69.68 75.17-86.19 2.37 10.58 4.69 20.97 7.01 31.37q0.35-0.05 0.69-0.11c2.52-11.09 5.03-22.19 7.62-33.58 4.83 2.94 9.25 5.63 13.68 8.32q0.22-0.29 0.44-0.58c-2.76-4.2-5.53-8.4-8.49-12.9 11.78-2.53 22.96-4.93 34.13-7.33q-0.03-0.39-0.07-0.78c-11.22-2.39-22.43-4.78-34.02-7.25 2.9-4.41 5.58-8.51 8.27-12.6q-0.29-0.27-0.57-0.54c-4.35 2.65-8.7 5.3-13.35 8.13-2.57-11.24-5.09-22.24-7.6-33.24q-0.4 0.01-0.79 0.03c-2.47 10.94-4.94 21.89-7.55 33.45-4.81-3-9.14-5.69-13.46-8.38q-0.23 0.32-0.45 0.63c2.62 4.06 5.24 8.12 8.14 12.6-11.57 2.43-22.85 4.79-34.13 7.15q-0.01 0.36-0.03 0.72c9.83 2.17 19.66 4.35 30.71 6.8-61.46 46.09-112.79 99.17-145.28 168.23 16.17-2.35 31.7-0.58 47.1 3.43 15.43 4.02 29.77 10.46 43.95 18.31 0.1-1.22 0.2-1.84 0.2-2.46-0.02-19.89-0.02-39.79-0.08-59.68-0.02-7.63-3.29-13.82-9.29-18.67-2.33-1.88-4.8-3.6-7.19-5.37 0.53-1.05 0.93-1.87 1.37-2.67 0.49-0.87 1.02-1.72 1.51-2.54 0.03 0.01 2.36-4.3 2.36-4.3zm86.41-92.35c-0.98 5.23-2.32 10.39-4.18 15.7-1.4-5.83-2.8-11.66-4.35-18.11-1.57 1.27-2.77 2.2-3.93 3.17-23.8 19.78-45.76 41.24-63.62 66.36-14.55 20.46-26.78 42.01-31.33 66.87-1.23 6.74-1.75 13.6-2.6 20.4q0.57 0.1 1.15 0.2c2.02-16.79 7.28-32.64 14.19-48.03 8.29 2.72 14.66 10.24 14.75 18.3 0.2 18.07 0.03 36.14 0 54.21 0 0.21-0.19 0.43-0.48 1.02-24.19-12.43-49.6-20.5-77.99-19.4 17.03-33.49 38.01-63.57 63.41-90.81 25.33-27.18 53.88-50.91 84.19-74.23-7.11-1.59-13.23-2.95-19.35-4.31q0.04-0.37 0.08-0.74c6.11-1.27 12.21-2.64 18.35-3.74 2.22-0.39 3.17-1.39 3.6-3.44 1.19-5.68 2.55-11.34 4.61-17.01 1.28 5.45 2.65 10.88 3.78 16.36 0.52 2.52 1.81 3.73 4.41 4.21 5.85 1.07 11.65 2.38 17.49 4.33-5.71 1.24-11.39 2.62-17.13 3.66-3.12 0.56-4.49 2.07-5.05 5.03z"/>
	<path id="&lt;Compound Path&gt;" class="s1" d="m391.53 107.64c-6.3 5.71-12.75 11.28-18.88 17.16q-22.56 21.66-44.82 43.61c-1.7 1.68-2.98 1.56-4.87 0.93-30.03-10-60.99-13.71-92.6-12.29-33.54 1.51-65.7 8.69-95.93 23.22-1.2 0.58-2.37 1.21-3.57 1.79-15.92 7.73-24.69 19.55-22.89 37.47 0.17 1.66 0.03 3.35 0.03 5.67-4.42-1.87-8.44-3.51-12.39-5.27-20.69-9.19-41.34-18.46-62.04-27.62-6.3-2.78-11.66-6.33-11.57-13.87 0.09-7.55 5.59-10.94 11.91-13.63q93.76-39.92 187.49-79.92c14.18-6.05 28.35-5.99 42.47-0.02 23.44 9.91 46.97 19.64 70.21 29.99 13.63 6.07 26.91 6.05 40.38 0.41 5.72-2.39 11.24-5.26 16.84-7.91q0.12 0.14 0.23 0.28zm-25.16 15.31c-13.35 2.93-25.48-0.11-37.54-5.44-22.29-9.85-44.83-19.18-67.28-28.7-12.89-5.46-25.74-5.18-38.57 0.3-46.94 20.03-93.9 40.03-140.84 60.06-15.81 6.74-31.63 13.48-47.4 20.3-3.21 1.39-6.76 2.6-7.69 6.79 13.3 5.21 26.94 8.84 40.87 4.99 13.33-3.69 26.4-8.54 39.09-13.96 25.61-10.92 50.52-23.43 77.31-31.61 25.19-7.7 50.89-11.41 77.31-8.38 19.14 2.19 37.57 7.06 55.26 14.51 4.64 1.95 9.43 3.3 14.44 1.82 13.46-3.98 24.3-12.16 35.04-20.68zm-263.03 95.04c0-1.36 0.03-2.49 0-3.63-0.35-12.68 4.97-22.85 15.43-30.11 6.05-4.2 12.65-7.9 19.48-10.78 59.71-25.15 120.76-27.72 182.89-9.48 2.37 0.69 3.78 0.47 5.52-1.34 6.68-6.92 13.58-13.65 20.39-20.46 0.63-0.63 1.18-1.32 2.45-2.77-1.53 0.75-2.01 0.97-2.47 1.22q-0.7 0.37-1.38 0.79c-11.16 6.77-22.08 7.31-34.63 2.11-31.74-13.13-64.84-17.28-99.11-10.97-23.88 4.39-46.26 12.83-68.29 22.41-19.05 8.28-37.98 16.85-57.18 24.81-13.4 5.54-27.51 7.88-42.06 5.15-5.84-1.09-11.54-2.91-17.49-4.45 0.83 3.72 3.67 5.4 6.7 6.76q33.91 15.21 67.85 30.34c0.45 0.2 1 0.22 1.9 0.4z"/>
	<path id="&lt;Compound Path&gt;" class="s1" d="m242.89 458.03c-35.61-62.59-70.83-124.51-106.17-186.62 15.47-6.88 31.2-11.66 48.01-12.42 1.27-0.05 3.13 1.59 3.89 2.9 15.89 27.55 31.65 55.16 47.45 82.75 1.87 3.27 3.79 6.51 5.97 10.24 5.04-9.4 9.86-18.34 14.64-27.3 11.69-21.92 23.39-43.83 34.97-65.79 1.29-2.45 2.8-3.32 5.61-3.18 15.28 0.74 29.93 4.09 44.07 9.66 0.72 0.28 1.39 0.69 2.63 1.32-33.64 62.71-67.19 125.28-101.07 188.44zm-85.15-189.68c-5 1.77-9.6 3.41-14.5 5.14 33.23 58.41 66.22 116.41 99.5 174.91 31.8-59.27 63.26-117.92 94.91-176.9-4.17-1.26-7.69-2.1-11.03-3.38-3.02-1.17-4.41-0.29-5.85 2.43-10.2 19.29-20.57 38.5-30.9 57.73-8.91 16.58-17.67 33.23-26.82 49.69-4.6 8.28-11.78 13.65-21.88 13.59-9.95-0.07-16.07-6.05-20.63-14-14.64-25.53-29.34-51.02-44.02-76.53-6.19-10.77-12.37-21.53-18.78-32.68zm3.61-1.32c0.89 1.65 1.29 2.44 1.74 3.22q23.74 41.38 47.5 82.75c4.9 8.51 9.55 17.16 14.82 25.45 7.68 12.07 22.26 12.81 31.61 1.86 1.44-1.69 2.64-3.61 3.69-5.56 13.21-24.52 26.38-49.06 39.56-73.6 6.18-11.5 12.37-22.99 18.93-35.19-6.74-0.97-13.06-1.8-19.35-2.82-2.7-0.44-3.97 0.56-5.2 2.88-16.75 31.67-33.63 63.27-50.48 94.89-0.53 0.99-1.13 1.94-1.93 3.29-0.9-1.36-1.58-2.27-2.14-3.25q-7.84-13.6-15.65-27.23c-12.87-22.48-25.77-44.95-38.58-67.47-1.18-2.09-2.32-3.11-4.95-2.6-6.27 1.23-12.6 2.19-19.57 3.38z"/>
	<path id="&lt;Compound Path&gt;" class="s1" d="m67.31 395.08c1.49-3.88 2.68-7.13 3.98-10.33 4.73-11.59 9.36-23.22 14.34-34.7 1.33-3.08 1.03-4.87-1.32-7.41-19.12-20.67-29.68-44.56-27.89-72.79 1.13-17.98 7.56-34.13 18.45-48.68 1.32-1.76 2.41-2.28 4.61-1.26q12.87 5.96 25.93 11.5c2.31 0.98 2.71 2.38 2.71 4.52-0.06 15.6-0.03 31.19-0.02 46.79 0 1.37 0 2.75 0 4.58 7.61-4.54 14.72-8.79 22.35-13.34 20.81 36.5 41.36 72.57 62.24 109.2-2.34 0.3-4.23 0.67-6.13 0.76-19.06 0.93-37.36-2.28-54.8-9.76-2.69-1.15-4.94-1.17-7.62-0.16-17.45 6.61-34.96 13.09-52.45 19.61-1.2 0.44-2.42 0.81-4.38 1.47zm19.96-19.04c4.39-10.91 8.27-20.72 12.29-30.48 0.74-1.79 0.64-2.85-0.87-4.34-4.21-4.17-8.4-8.42-12.09-13.02-23.54-29.36-25.21-66.53-4.57-97.86 0.69-1.04 1.3-2.14 2.06-3.41-2.11-0.95-3.89-1.75-5.49-2.47-0.53 0.31-0.84 0.4-0.97 0.59-14.2 20.41-19.81 42.68-15.14 67.05 3.71 19.37 13.48 35.72 27.42 49.79 2.24 2.27 2.4 4.04 1.23 6.79-4.83 11.4-9.44 22.89-14.11 34.36-0.5 1.23-0.91 2.49-1.6 4.41 16.97-6.34 33.03-12.44 49.2-18.27 1.98-0.71 4.64-0.5 6.73 0.11 8.95 2.59 17.67 6.15 26.76 8.07 8.64 1.83 17.64 2.05 26.48 2.97q0.16-0.67 0.32-1.34c-1.86-2.13-1.48-6.02-5.98-6.04-16.62-0.07-32.33-4-47.27-10.9-2.39-1.1-4.39-1.09-6.81-0.14-7.55 3-15.19 5.79-22.8 8.65-4.57 1.71-9.15 3.39-14.79 5.48zm81.4-25.66c-13.75-24.11-26.84-47.07-40.17-70.44-8.47 5.5-16.44 10.66-24.8 16.09-0.07-1.59-0.19-2.84-0.19-4.08 0.02-17.67 0.1-35.33 0-53 0-1.39-0.8-3.46-1.89-4.03-4.43-2.32-9.12-4.18-13.91-6.3-8.19 11.49-14.61 23.25-13.4 37.64 0.86 10.34 3.39 20.22 8.2 29.51 14.04 27.09 37.4 42.72 66.83 50.7 5.97 1.62 12.16 2.48 19.33 3.91zm10.98 19.32c-3.01-5.24-5.72-10.13-8.67-14.88-0.47-0.76-1.99-1.15-3.07-1.28-14.88-1.76-29.17-5.5-42.56-12.11-27.08-13.38-45.49-33.69-52.91-62.7q-0.19-0.76-0.48-1.48c-0.14-0.32-0.37-0.6-0.88-1.41 0.91 24.44 10.71 44.32 28 60.92 5.75 5.52 5.78 5.48 2.73 12.95-2.64 6.45-5.26 12.92-8.24 20.25 7.89-2.99 15.06-5.17 21.71-8.36 8.48-4.08 16.07-4.26 24.86-0.03 12.07 5.79 25.4 7.77 39.51 8.13z"/>
	<path id="&lt;Compound Path&gt;" class="s1" d="m419.2 326.6c-4.35 13.12-10.83 25.79-21.24 35.7-6.57 6.26-7 11.27-3.46 19.01 5.69 12.44 10.02 25.46 15.2 38.97-1.72-0.6-2.92-0.96-4.06-1.43-17.89-7.32-35.74-14.73-53.69-21.89-1.95-0.78-4.73-0.8-6.72-0.1-20.03 7.04-40.5 9.73-61.65 6.65-1.04-0.15-2.05-0.41-3.58-0.73 23.41-43.64 46.66-87 70.36-131.2 9.01 5.11 17.83 10.11 26.97 15.28 0.05-1.24 0.17-2.57 0.17-3.91 0.02-15.99-0.03-31.98 0.14-47.97 0.01-1.44 1.08-3.27 2.26-4.19 1.8-1.4 3.91-1.2 5.7 0.66 5.99 6.25 12.05 12.43 18.08 18.65-7.98 9.48-8.65 18.62-2.92 28.28 0.51 0.86 0.34 2.26 0.14 3.34-2 11-3.91 22.02-6.24 32.95-0.76 3.56 0.13 5.46 3.57 6.38 6.8 1.82 13.61 3.61 20.97 5.55zm-66.65-49.22c-16.68 31.14-32.76 61.16-48.88 91.26 0.6 0.17 0.86 0.32 1.1 0.3 26.64-2.91 49.74-12.64 67.83-32.47 14.34-15.72 20.97-34.44 23.58-54.82 0.15-1.16-0.63-2.41-0.92-3.63-1.01-4.39-2.49-8.74-2.89-13.18-0.63-6.92-5.7-10.72-9.3-15.59q-0.59 0.22-1.17 0.44c0 15.34 0 30.68 0 46.11-9.87-6.19-19.36-12.15-29.35-18.42zm-60.11 112.24c2.42 0.22 4.23 0.51 6.04 0.54 14.38 0.23 28.44-1.97 41.64-7.31 6.6-2.67 11.9-2.39 18.07 0.61 8.06 3.91 16.54 6.98 25.47 10.67-3.43-8.86-6.49-17-9.77-25.07-0.93-2.29-0.63-3.7 1.39-5.31 8.02-6.4 14.96-13.8 20.32-22.46 2.66-4.29 4.91-8.81 7.29-13.13-4.76-3.48-11.34-2.87-13.64-7.49-5.46 6.88-10.73 14.8-17.29 21.54-17.99 18.51-40.8 27.57-66.62 30.11-1.48 0.15-3.67 0.42-4.24 1.36-3.02 5-5.62 10.24-8.66 15.94zm97.5 10.9c-13.12-5.42-25.07-10.27-36.93-15.34-2.78-1.19-5.09-1.35-7.97-0.24-15.98 6.16-32.48 9.62-49.81 8.51-5.48-0.35-6.22 0.3-7.29 6.05 19.71 2.07 38.74-0.57 57.13-7.57 2.71-1.04 4.98-0.88 7.63 0.23 15.35 6.45 30.77 12.73 46.18 19.05 0.74 0.31 1.58 0.42 2.69 0.7-5.21-13.45-10.19-26.47-15.35-39.42-0.95-2.4-0.85-3.96 1.2-5.77 2.96-2.61 5.72-5.49 8.29-8.47 7.33-8.51 13.21-17.86 17.42-28.5-1.37-0.26-2.38-0.48-3.4-0.66-1.03-0.17-2.08-0.3-3.17-0.46-0.4 0.69-0.76 1.23-1.02 1.81-6.06 13.58-14.8 25.26-26.47 34.8-1.85 1.51-1.74 2.74-0.98 4.67 3.88 9.78 7.61 19.62 11.85 30.61zm7.63-150.32c-4.73-4.98-9.58-10.07-14.43-15.16q-0.65 0.37-1.3 0.75c0.3 2.63-0.27 5.81 1.06 7.78 3.17 4.65 7.24 8.73 10.96 13.06 1.17-2.04 2.27-3.93 3.71-6.43z"/>
	<path id="&lt;Compound Path&gt;" class="s1" d="m320.55 175.61c-32.87 39.98-56.39 84.49-77.75 131.17-2.56-5.58-4.61-10.34-6.91-14.98-3.08-6.19-5.99-12.5-9.62-18.39-10-16.2-25.29-22.51-44.26-20.93-21.57 1.8-41.47 8.78-60.28 18.95-1.97 1.06-3.96 2.1-6.35 3.36-0.15-1.25-0.35-2.18-0.35-3.12q-0.06-29.43-0.04-58.87c0.01-8.41 3.55-15.41 10.78-19.81 7.44-4.54 15.25-8.74 23.39-11.92 54.55-21.28 110.07-23.44 166.38-7.13 1.39 0.41 2.75 0.92 5.01 1.67zm-77.57 119.8c19.43-41.67 41.06-81.51 69.96-117.62-2.09-0.63-3.35-1.04-4.64-1.39-39.78-10.56-79.83-11.49-120.05-2.69-19.4 4.25-38.09 10.5-55.46 20.08-8.88 4.9-13.66 11.88-13.47 22.17 0.31 15.98 0.05 31.97 0.06 47.95 0 0.96 0.14 1.91 0.25 3.22 2.07-1 3.74-1.77 5.38-2.6 15.79-8.03 32.49-13.29 50.12-15.94 27.26-4.1 45.96 4.9 58.69 28.55 3.1 5.75 5.86 11.66 9.16 18.27z"/>
	<path id="&lt;Path&gt;" class="s2" d="m462.91 49.92c-0.3-4.79-3.08-6.56-7.32-7.27 4.16-0.92 7.32-2.46 7.14-7.59 0.89 4.51 3.11 6.93 7.63 7.5-4.21 0.93-7.14 2.72-7.45 7.36z"/>
	<path id="&lt;Path&gt;" class="s2" d="m429.7 131.77c-1.45 0.92-3.01 2.69-4.32 2.52-1.42-0.19-3.4-1.99-3.71-3.39-0.52-2.31 1.34-4.1 3.8-3.67 1.55 0.27 2.85 1.87 4.26 2.88q-0.01 0.83-0.03 1.66z"/>
	<path id="&lt;Path&gt;" class="s2" d="m484.41 66.4c-1.97 1.12-3.2 2.39-4.13 2.21-1.01-0.2-2.45-1.78-2.39-2.68 0.05-0.9 1.71-2.34 2.7-2.37 0.98-0.04 2 1.4 3.82 2.84z"/>
	<path id="&lt;Path&gt;" class="s2" d="m483.47 27c0.22 0.21 1.04 0.96 1.97 1.83-0.71 0.73-1.62 1.66-2.62 2.68-0.83-0.92-1.71-1.9-1.92-2.13 0.85-0.78 1.66-1.53 2.57-2.38z"/>
	<path id="&lt;Path&gt;" class="s2" d="m367.61 95.95c0.95 1.63 1.99 2.62 1.83 3.36-0.16 0.76-1.45 1.62-2.35 1.76-0.47 0.08-1.71-1.33-1.66-2.01 0.06-0.84 1.08-1.63 2.18-3.11z"/>
	<path id="&lt;Path&gt;" class="s2" d="m337 241.51c2.02-16.79 7.28-32.64 14.19-48.03 8.29 2.72 14.66 10.24 14.75 18.3 0.2 18.07 0.03 36.14 0 54.21 0 0.21-0.19 0.43-0.48 1.02-24.19-12.43-49.6-20.5-77.99-19.4 17.03-33.49 38.01-63.57 63.41-90.81 25.33-27.18 53.88-50.91 84.19-74.23-7.11-1.59-13.23-2.95-19.35-4.31q0.04-0.37 0.08-0.74c6.11-1.27 12.21-2.64 18.35-3.74 2.22-0.39 3.17-1.39 3.6-3.44 1.19-5.68 2.55-11.34 4.61-17.01 1.28 5.45 2.65 10.88 3.78 16.36 0.52 2.52 1.81 3.73 4.41 4.21 5.85 1.07 11.65 2.38 17.49 4.33-5.71 1.24-11.39 2.62-17.13 3.66-3.12 0.56-4.49 2.07-5.05 5.03-0.98 5.23-2.32 10.39-4.18 15.7-1.4-5.83-2.8-11.66-4.35-18.11-1.57 1.27-2.77 2.2-3.93 3.17-23.8 19.78-45.76 41.24-63.62 66.36-14.55 20.46-26.78 42.01-31.33 66.87-1.23 6.74-1.75 13.6-2.6 20.4q0.57 0.1 1.15 0.2z"/>
	<path id="&lt;Path&gt;" class="s3" d="m402.28 177.17c-4.31-2.17-8.95-4.59-11.2-9.87-2.83-6.61 0.02-13.2 0.91-15.08q5.46-9.46 10.93-18.91 0.7 0.28 1.4 0.57c-1.16 1.57-2.49 3.9-3.11 6.91-0.42 2.01-0.97 4.57 0.27 6.87 0.89 1.64 2.66 2.84 5.6 4.1 12.48 5.36 24.98 10.64 37.46 15.99 3.72 1.6 6.26 3 7.18 3.46 3.05 1.54 5.65 2.94 7.69 4.08-3.32 1.45-8.63 3.51-15.43 4.99-6.99 1.53-25.1 5.27-41.7-3.11z"/>
	<path id="&lt;Path&gt;" class="s4" d="m404.32 133.88c-0.11 0.82-0.24 2.01-0.31 3.43-0.1 2.06-0.25 4.98 0.27 6.88 0.95 3.46 4.6 5.41 6.91 6.58 13.28 6.72 25.75 9.47 37.14 15.98 2.36 1.35 6.12 3.69 10.39 7.32-4.62 1.86-10.25 3.62-16.79 4.66-5.85 0.93-22.58 3.36-38.46-4.85-4.54-2.36-9.4-4.95-10.86-9.94-0.33-1.14-1.03-4.22 3.38-14.5 1.7-3.97 4.33-9.4 8.33-15.56z"/>
	<path id="&lt;Path&gt;" class="s5" d="m366.37 122.95c-10.74 8.52-21.58 16.7-35.04 20.68-5.01 1.48-9.8 0.13-14.44-1.82-17.69-7.45-36.12-12.32-55.26-14.51-26.42-3.03-52.12 0.68-77.31 8.38-26.79 8.18-51.7 20.69-77.31 31.61-12.69 5.42-25.76 10.27-39.09 13.96-13.93 3.85-27.57 0.22-40.87-4.99 0.93-4.19 4.48-5.4 7.69-6.79 15.77-6.82 31.59-13.56 47.4-20.3 46.94-20.03 93.9-40.03 140.84-60.06 12.83-5.48 25.68-5.76 38.57-0.3 22.45 9.52 44.99 18.85 67.28 28.7 12.06 5.33 24.19 8.37 37.54 5.44z"/>
	<path id="&lt;Path&gt;" class="s0" d="m103.34 217.99c-0.9-0.18-1.45-0.2-1.9-0.4q-33.94-15.13-67.85-30.34c-3.03-1.36-5.87-3.04-6.7-6.76 5.95 1.54 11.65 3.36 17.49 4.45 14.55 2.73 28.66 0.39 42.06-5.15 19.2-7.96 38.13-16.53 57.18-24.81 22.03-9.58 44.41-18.02 68.29-22.41 34.27-6.31 67.37-2.16 99.11 10.97 12.55 5.2 23.47 4.66 34.63-2.11q0.68-0.42 1.38-0.79c0.46-0.25 0.94-0.47 2.47-1.22-1.27 1.45-1.82 2.14-2.45 2.77-6.81 6.81-13.71 13.54-20.39 20.46-1.74 1.81-3.15 2.03-5.52 1.34-62.13-18.24-123.18-15.67-182.89 9.48-6.83 2.88-13.43 6.58-19.48 10.78-10.46 7.26-15.78 17.43-15.43 30.11 0.03 1.14 0 2.27 0 3.63z"/>
	<path id="&lt;Path&gt;" class="s6" d="m157.74 268.35c6.41 11.15 12.59 21.91 18.78 32.68 14.68 25.51 29.38 51 44.02 76.53 4.56 7.95 10.68 13.93 20.63 14 10.1 0.06 17.28-5.31 21.88-13.59 9.15-16.46 17.91-33.11 26.82-49.69 10.33-19.23 20.7-38.44 30.9-57.73 1.44-2.72 2.83-3.6 5.85-2.43 3.34 1.28 6.86 2.12 11.03 3.38-31.65 58.98-63.11 117.63-94.91 176.9-33.28-58.5-66.27-116.5-99.5-174.91 4.9-1.73 9.5-3.37 14.5-5.14z"/>
	<path id="&lt;Path&gt;" class="s7" d="m161.35 267.03c6.97-1.19 13.3-2.15 19.57-3.38 2.63-0.51 3.77 0.51 4.95 2.6 12.81 22.52 25.71 44.99 38.58 67.47q7.81 13.63 15.65 27.23c0.56 0.98 1.24 1.89 2.14 3.25 0.8-1.35 1.4-2.3 1.93-3.29 16.85-31.62 33.73-63.22 50.48-94.89 1.23-2.32 2.5-3.32 5.2-2.88 6.29 1.02 12.61 1.85 19.35 2.82-6.56 12.2-12.75 23.69-18.93 35.19-13.18 24.54-26.35 49.08-39.56 73.6-1.05 1.95-2.25 3.87-3.69 5.56-9.35 10.95-23.93 10.21-31.61-1.86-5.27-8.29-9.92-16.94-14.82-25.45q-23.76-41.37-47.5-82.75c-0.45-0.78-0.85-1.57-1.74-3.22z"/>
	<path id="&lt;Path&gt;" class="s8" d="m168.67 350.38c-7.17-1.43-13.36-2.29-19.33-3.91-29.43-7.98-52.79-23.61-66.83-50.7-4.81-9.29-7.34-19.17-8.2-29.51-1.21-14.39 5.21-26.15 13.4-37.64 4.79 2.12 9.48 3.98 13.91 6.3 1.09 0.57 1.89 2.64 1.89 4.03 0.1 17.67 0.02 35.33 0 53 0 1.24 0.12 2.49 0.19 4.08 8.36-5.43 16.33-10.59 24.8-16.09 13.33 23.37 26.42 46.33 40.17 70.44z"/>
	<path id="&lt;Path&gt;" class="s0" d="m87.27 376.04c5.64-2.09 10.22-3.77 14.79-5.48 7.61-2.86 15.25-5.65 22.8-8.65 2.42-0.95 4.42-0.96 6.81 0.14 14.94 6.9 30.65 10.83 47.27 10.9 4.5 0.02 4.12 3.91 5.98 6.04q-0.16 0.67-0.32 1.34c-8.84-0.92-17.84-1.14-26.48-2.97-9.09-1.92-17.81-5.48-26.76-8.07-2.09-0.61-4.75-0.82-6.73-0.11-16.17 5.83-32.23 11.93-49.2 18.27 0.69-1.92 1.1-3.18 1.6-4.41 4.67-11.47 9.28-22.96 14.11-34.36 1.17-2.75 1.01-4.52-1.23-6.79-13.94-14.07-23.71-30.42-27.42-49.79-4.67-24.37 0.94-46.64 15.14-67.05 0.13-0.19 0.44-0.28 0.97-0.59 1.6 0.72 3.38 1.52 5.49 2.47-0.76 1.27-1.37 2.37-2.06 3.41-20.64 31.33-18.97 68.5 4.57 97.86 3.69 4.6 7.88 8.85 12.09 13.02 1.51 1.49 1.61 2.55 0.87 4.34-4.02 9.76-7.9 19.57-12.29 30.48z"/>
	<path id="&lt;Path&gt;" class="s7" d="m179.65 369.7c-14.11-0.36-27.44-2.34-39.51-8.13-8.79-4.23-16.38-4.05-24.86 0.03-6.65 3.19-13.82 5.37-21.71 8.36 2.98-7.33 5.6-13.8 8.24-20.25 3.05-7.47 3.02-7.43-2.73-12.95-17.29-16.6-27.09-36.48-28-60.92 0.51 0.81 0.74 1.09 0.88 1.41q0.29 0.72 0.48 1.48c7.42 29.01 25.83 49.32 52.91 62.7 13.39 6.61 27.68 10.35 42.56 12.11 1.08 0.13 2.6 0.52 3.07 1.28 2.95 4.75 5.66 9.64 8.67 14.88z"/>
	<path id="&lt;Path&gt;" class="s8" d="m352.55 277.38c9.99 6.27 19.48 12.23 29.35 18.42 0-15.43 0-30.77 0-46.11q0.58-0.22 1.17-0.44c3.6 4.87 8.67 8.67 9.3 15.59 0.4 4.44 1.88 8.79 2.89 13.18 0.29 1.22 1.07 2.47 0.92 3.63-2.61 20.38-9.24 39.1-23.58 54.82-18.09 19.83-41.19 29.56-67.83 32.47-0.24 0.02-0.5-0.13-1.1-0.3 16.12-30.1 32.2-60.12 48.88-91.26z"/>
	<path id="&lt;Path&gt;" class="s7" d="m292.44 389.62c3.04-5.7 5.64-10.94 8.66-15.94 0.57-0.94 2.76-1.21 4.24-1.36 25.82-2.54 48.63-11.6 66.62-30.11 6.56-6.74 11.83-14.66 17.29-21.54 2.3 4.62 8.88 4.01 13.64 7.49-2.38 4.32-4.63 8.84-7.29 13.13-5.36 8.66-12.3 16.06-20.32 22.46-2.02 1.61-2.32 3.02-1.39 5.31 3.28 8.07 6.34 16.21 9.77 25.07-8.93-3.69-17.41-6.76-25.47-10.67-6.17-3-11.47-3.28-18.07-0.61-13.2 5.34-27.26 7.54-41.64 7.31-1.81-0.03-3.62-0.32-6.04-0.54z"/>
	<path id="&lt;Path&gt;" class="s0" d="m389.94 400.52c-4.24-10.99-7.97-20.83-11.85-30.61-0.76-1.93-0.87-3.16 0.98-4.67 11.67-9.54 20.41-21.22 26.47-34.8 0.26-0.58 0.62-1.12 1.02-1.81 1.09 0.16 2.14 0.29 3.17 0.46 1.02 0.18 2.03 0.4 3.4 0.66-4.21 10.64-10.09 19.99-17.42 28.5-2.57 2.98-5.33 5.86-8.29 8.47-2.05 1.81-2.15 3.37-1.2 5.77 5.16 12.95 10.14 25.97 15.35 39.42-1.11-0.28-1.95-0.39-2.69-0.7-15.41-6.32-30.83-12.6-46.18-19.05-2.65-1.11-4.92-1.27-7.63-0.23-18.39 7-37.42 9.64-57.13 7.57 1.07-5.75 1.81-6.4 7.29-6.05 17.33 1.11 33.83-2.35 49.81-8.51 2.88-1.11 5.19-0.95 7.97 0.24 11.86 5.07 23.81 9.92 36.93 15.34z"/>
	<path id="&lt;Path&gt;" class="s0" d="m397.57 250.2c-1.44 2.5-2.54 4.39-3.71 6.43-3.72-4.33-7.79-8.41-10.96-13.06-1.33-1.97-0.76-5.15-1.06-7.78q0.65-0.38 1.3-0.75c4.85 5.09 9.7 10.18 14.43 15.16z"/>
	<path id="&lt;Path&gt;" class="s9" d="m242.98 295.41c-3.3-6.61-6.06-12.52-9.16-18.27-12.73-23.65-31.43-32.65-58.69-28.55-17.63 2.65-34.33 7.91-50.12 15.94-1.64 0.83-3.31 1.6-5.38 2.6-0.11-1.31-0.25-2.26-0.25-3.22-0.01-15.98 0.25-31.97-0.06-47.95-0.19-10.29 4.59-17.27 13.47-22.17 17.37-9.58 36.06-15.83 55.46-20.08 40.22-8.8 80.27-7.87 120.05 2.69 1.29 0.35 2.55 0.76 4.64 1.39-28.9 36.11-50.53 75.95-69.96 117.62z"/>
	<path id="&lt;Path&gt;" class="s10" d="m415.66 251.12c-0.06 0.88-0.09 1.32-0.26 1.83-0.04 0.13-0.48 1.47-1.5 2.3-0.25 0.2-0.82 0.6-1.38 0.96q-0.18 0.11-0.21 0.13c-1.89 1.18-3.13 3.01-3.13 3.01-1.45 2.15-1.66 4.28-1.7 5.05-0.03 0.47-0.07 1.88 0.47 3.57 0.36 1.16 0.86 2 1.04 2.3 0.26 0.43 0.33 0.47 0.99 1.38 0.87 1.21 1.3 1.81 1.51 2.25 0.67 1.36 0.73 2.58 0.75 2.88 0.02 0.58-0.04 1.15-0.07 1.47-0.07 0.73-0.18 1.27-0.22 1.47-0.3 1.45-0.52 2.91-0.85 4.36-0.36 1.57-1.65 8.26-5.18 27.3 0.68 0.23 1.64 0.54 2.8 0.85 2.08 0.56 6.3 1.66 11.81 1.63 4.96-0.03 9.14-0.97 12.23-1.95-0.14-0.72-0.43-2.2-0.57-2.92q-2.63-13.45-5.16-26.86-0.17-0.45-0.38-1.22c-0.23-0.85-0.53-2.01-0.49-3.45 0.02-0.61 0.04-1.52 0.43-2.62 0 0 0.49-1.38 1.69-2.87 0.12-0.16 0.26-0.32 0.26-0.32q0.5-0.58 0.85-0.9c0.49-0.71 1.16-1.88 1.52-3.46 0.67-3-0.3-5.4-0.59-6.08-0.09-0.21-0.87-2-2.41-3.5-0.69-0.67-1.52-1.29-1.52-1.29-0.95-0.72-1.08-0.66-1.63-1.14-0.38-0.32-1.18-1.09-1.66-2.27-0.3-0.74-0.42-1.33-0.41-2.15q0.02-1.79 0.04-3.58c0.01-0.81 0-1.25-0.01-1.82-0.05-5.84 0.15-15.47 0.16-15.6 0.08-2.61 0.01-4.54-0.01-5.03-0.13-4.08 0.34-10.55-0.08-20.54-0.04-0.93-0.08-1.68-0.1-2.08-0.02-0.64 0.08-1.16 0.18-1.51 0.16-0.56 0.38-0.95 0.5-1.16q0.36-0.6 0.67-0.94-4.34 1.87-8.68 3.74 0.13 2.14 0.27 4.28c0 0.67 0 1.52 0 2.26 0.03 15.67-0.11 21.45-0.03 32.63 0.02 1.76 0.04 4.54 0.1 7.99 0.01 0.4 0.01 0.95-0.04 1.62z"/>
	<path id="&lt;Path&gt;" class="s2" d="m413.91 251.34c-0.07 0.88-0.1 1.32-0.26 1.83-0.04 0.14-0.48 1.47-1.5 2.3-0.25 0.2-0.82 0.6-1.38 0.96q-0.18 0.11-0.21 0.13c-1.89 1.18-3.14 3.02-3.14 3.02-1.45 2.14-1.65 4.27-1.69 5.04-0.03 0.47-0.07 1.88 0.46 3.57 0.37 1.17 0.86 2.01 1.05 2.3 0.26 0.43 0.33 0.47 0.99 1.39 0.86 1.2 1.3 1.81 1.51 2.24 0.66 1.37 0.73 2.58 0.74 2.89 0.03 0.57-0.03 1.15-0.06 1.47-0.07 0.72-0.18 1.26-0.22 1.46-0.3 1.45-0.52 2.92-0.85 4.36-0.36 1.58-1.66 8.27-5.18 27.31 0.68 0.23 1.64 0.53 2.8 0.84 5.66 1.53 10.27 1.63 11.81 1.63 4.96 0.03 9.12-0.78 12.17-1.62q-0.25-1.62-0.52-3.25-2.24-13.78-5.16-26.85-0.16-0.45-0.37-1.23c-0.23-0.85-0.53-2-0.49-3.45 0.01-0.61 0.04-1.51 0.43-2.62 0 0 0.48-1.38 1.68-2.87 0.13-0.16 0.27-0.32 0.27-0.32q0.5-0.57 0.85-0.9c0.48-0.7 1.16-1.88 1.52-3.45 0.67-3.01-0.31-5.4-0.6-6.09-0.08-0.2-0.86-1.99-2.4-3.5-0.69-0.66-1.52-1.29-1.52-1.29-0.95-0.72-1.08-0.65-1.63-1.13-0.38-0.33-1.18-1.1-1.66-2.28-0.3-0.74-0.42-1.32-0.41-2.14q0.02-1.8 0.04-3.59c0.01-0.81 0-1.25-0.01-1.81-0.06-5.89 0.15-15.61 0.15-15.61 0.09-4.25 0.26-11.72-0.08-25.56 0.01-0.71-0.11-1.37-0.1-2.08-0.05-0.29-0.1-0.85 0.11-1.49 0.28-0.86 0.86-1.35 1.1-1.54q-4.24 1.84-8.49 3.68c0.09 0.94 0.18 2.23 0.22 3.75 0.02 1.14 0 1.99 0 2.27 0.03 15.66-0.11 21.44-0.03 32.62 0.02 1.77 0.04 4.55 0.09 7.99 0.02 0.4 0.02 0.96-0.03 1.62z"/>
	<path id="&lt;Compound Path&gt;" class="s1" d="m452.19 164.6c-12.93-5.66-25.97-11.11-38.96-16.66-6.64-2.84-6.88-3.39-4.93-10.26q0.39-1.31 0.85-2.6c3.55-10.24 9.85-18.98 16.18-27.69q1.16-1.6 2.31-3.21c-15.86 12.83-29.94 27.1-40.7 44.05-4.09 6.44-7.21 13.63-9.63 20.85-1.77 5.3-1.68 11.19-2.43 16.82q0.75 0.12 1.49 0.24c0.79-11.88 4.76-22.68 11.48-33.52-1.55 17.78 3.77 25.1 20.89 30.07 9.44 2.74 19.06 3.12 28.66 1.72 6.8-0.98 13.46-2.93 20.41-4.5-0.95 3.52-3.85 5.1-6.83 6.46-8.37 3.81-16.75 7.57-25.2 11.2-2.26 0.97-3.11 2.17-3.09 4.64q0.19 24.19 0.02 48.37c-0.01 2.44 0.59 3.93 2.86 5.32 5.71 3.48 7.44 10.93 3.17 15.54-2.88 3.11-3.11 5.91-2.09 9.47 0.6 2.12 0.89 4.32 1.32 6.49 1.59 8.13 3.17 16.25 4.79 24.51-9.28 2.92-17.96 2.41-26.84-0.53 2.02-10.66 3.93-20.99 5.96-31.3 0.59-3 0.72-5.45-1.68-8.17-4.51-5.12-3.23-12.34 2.63-15.9 1.08-0.66 1.78-1.34 2.22-2.12 0.47-0.83 0.61-1.86 0.64-2.08 0.11-0.77 0.08-1.36 0.07-1.51-0.17-2.96-0.08-19-0.13-43.68 0-1.23-0.15-2.45-0.27-4.28-11.47 5.1-22.41 9.96-33.96 15.09 0.4-3.82 0.53-10.54-2.47-18.03-5.24-13.08-16.3-19.17-19.58-20.83q-1.2 2.22-2.4 4.44c3.32 1.58 10.18 5.43 15.16 13.21 8.06 12.58 4.98 25.74 4.3 28.41 12.26-5.47 23.25-10.37 34.8-15.53 0 14.08 0.05 27.44-0.09 40.79-0.01 1-1.22 2.18-2.16 2.95-6.8 5.54-8 14.12-3.27 21.38 1.06 1.62 1.54 4.08 1.22 5.99-1.75 10.51-3.9 20.96-5.7 31.46-0.19 1.09 0.73 3.16 1.64 3.5 10.74 4.07 21.62 4.45 32.6 0.7 2.29-0.78 2.57-1.95 2.12-4.12-2.21-10.7-4.3-21.42-6.21-32.17-0.28-1.53 0.2-3.56 1.11-4.86 4.98-7.14 4.17-15.96-2.56-21.42-2.02-1.65-2.54-3.3-2.53-5.65 0.08-14.04 0.14-28.09-0.04-42.13-0.03-2.82 0.99-4.11 3.52-5.2 8.2-3.53 16.39-7.1 24.4-11.01 8.24-4.02 10.26-13.72 4.19-19.99-1.94-2.02-4.63-3.56-7.26-4.72zm-49.82 11.85c-11.28-5.17-14.47-13.2-9.67-24.4 2.78-6.5 6.77-12.51 10.22-18.74q0.7 0.28 1.4 0.57c-0.48 2-1.02 3.99-1.42 6.01-1.22 6.17-0.04 8.43 5.88 10.98 12.47 5.35 24.98 10.63 37.46 15.98 2.44 1.05 4.97 2.04 7.17 3.46 1.76 1.14 3.1 2.9 5.15 4.9-19.29 7.31-37.71 9.72-56.19 1.24z"/>
	<path id="&lt;Path&gt;" class="s10" d="m314.63 249.34c-2.01-0.36-3.65-0.59-4.69-0.73-2.41-0.31-6.25-0.71-18.97-0.95-1.52-0.02-2.75-0.04-3.5-0.05 10.62-21.08 24.95-45.13 44.34-69.96 35.21-45.08 73.66-75.51 103.26-95.08-27.1 19.75-66.11 54.02-95.34 107.21-11.74 21.36-19.66 41.69-25.1 59.56z"/>
	<path id="&lt;Path&gt;" class="s8" d="m232.89 167.93q5.05 63.82 10.09 127.63c2.32-5.07 5.57-12.03 9.62-20.23 6.66-13.46 15.74-31.7 29.1-53.12 7.58-12.15 17.85-27.43 31.24-44.42-4.33-1.37-10.74-3.26-18.65-5.05-8.09-1.84-22.24-4.98-40.8-5.44-5.14-0.13-12.19-0.09-20.6 0.63z"/>
	<path id="&lt;Path&gt;" class="s0" d="m389.59 150.77c-0.98-0.37-5.51 7.22-9.48 16.64-3.71 8.81-5.8 16.54-7.02 22.14q2.25 3.45 4.5 6.9c1.13 2.4 2.35 5.59 3.13 9.44 0.93 4.6 0.92 8.59 0.68 11.54 4.46-1.91 10.94-4.7 18.78-8.08 13.6-5.85 20.49-8.83 25.33-10.99 6.99-3.13 16.87-7.67 28.76-13.6 0.74-0.51 1.85-1.42 2.7-2.89 0.42-0.72 0.68-1.4 0.84-1.96-0.8 0.19-2.08 0.49-3.65 0.86-5.63 1.33-9.01 2.15-10.01 2.39-11.48 2.71-22.44 1.86-22.44 1.86-2.2-0.18-6.63-0.64-12-2.06-4.05-1.07-6.66-2.17-7.23-2.42-2.59-1.1-5.13-2.18-7.29-3.92-5.48-4.41-6.44-11.27-6.7-13.03-1.06-7.4 1.9-12.51 1.1-12.82z"/>
	<path id="&lt;Path&gt;" class="s7" d="m354.83 194.85c2.63 1.25 7.38 3.98 9.62 8.72 1.26 2.67 2.07 6.71 2.17 7.21 0 0 0.39 1.95 0.57 4 0.79 8.59-1.02 30.89-0.93 48.03 0.01 1.16 0.03 3.26 0.11 5.92q-10.73-5.46-21.46-10.92c-0.26-1.18-0.61-2.9-0.91-4.99-0.43-2.9-1.64-12.44 1.37-28.17 1.44-7.53 4.12-17.92 9.46-29.8z"/>
	<path id="&lt;Path&gt;" class="s11" d="m354.83 194.85c-4 9.96-6.49 18.68-8.09 25.4-3.68 15.49-3.41 23.71-3.31 25.85 0.21 4.86 0.89 8.88 1.48 11.71q-4.38-1.59-8.77-3.19c0.05-1.58 0.14-3.96 0.34-6.84 0.64-9.02 1.75-23.47 7.97-39.81 1.39-3.64 3.53-8.68 6.74-14.49q1.82 0.69 3.64 1.37z"/>
	<g id="Layer 1">
	</g>
</svg>